<svg id="Email_ic" data-name="Email ic" xmlns="http://www.w3.org/2000/svg" width="17.188" height="13.08" viewBox="0 0 17.188 13.08">
  <g id="Group_1118" data-name="Group 1118">
    <path id="Path_402" data-name="Path 402" d="M15.09,57.75H2.1a2.1,2.1,0,0,0-2.1,2.1v8.877a2.1,2.1,0,0,0,2.1,2.1H15.086a2.1,2.1,0,0,0,2.1-2.1V59.855A2.1,2.1,0,0,0,15.09,57.75Zm1.142,10.979A1.143,1.143,0,0,1,15.09,69.87H2.1A1.143,1.143,0,0,1,.96,68.729V59.855A1.143,1.143,0,0,1,2.1,58.714H15.086a1.143,1.143,0,0,1,1.142,1.142v8.873Z" transform="translate(0 -57.75)" fill="#001777"/>
    <path id="Path_403" data-name="Path 403" d="M64.609,113.513l4.2-3.77a.481.481,0,0,0-.644-.715l-5.8,5.2-1.131-1.01s-.007-.007-.007-.011a.715.715,0,0,0-.078-.068l-4.6-4.118a.481.481,0,0,0-.64.718l4.253,3.8-4.236,3.965a.482.482,0,0,0-.021.679.491.491,0,0,0,.352.153.481.481,0,0,0,.327-.128l4.3-4.022,1.167,1.042a.479.479,0,0,0,.64,0l1.2-1.074,4.275,4.061a.481.481,0,0,0,.679-.018.482.482,0,0,0-.018-.679Z" transform="translate(-53.77 -107.083)" fill="#001777"/>
  </g>
</svg>
