<svg id="Password_ic" data-name="Password ic" xmlns="http://www.w3.org/2000/svg" width="13.117" height="17.49" viewBox="0 0 13.117 17.49">
  <path id="Path_450" data-name="Path 450" d="M14.478,19.931H4.64A1.642,1.642,0,0,1,3,18.291V10.64A1.642,1.642,0,0,1,4.64,9h9.838a1.642,1.642,0,0,1,1.64,1.64v7.652A1.642,1.642,0,0,1,14.478,19.931ZM4.64,10.093a.547.547,0,0,0-.547.547v7.652a.547.547,0,0,0,.547.547h9.838a.547.547,0,0,0,.547-.547V10.64a.547.547,0,0,0-.547-.547Z" transform="translate(-3 -2.441)" fill="#001777"/>
  <path id="Path_451" data-name="Path 451" d="M14.2,7.652a.547.547,0,0,1-.547-.547V4.372a3.279,3.279,0,0,0-6.559,0V7.105A.547.547,0,1,1,6,7.105V4.372a4.372,4.372,0,1,1,8.745,0V7.105A.547.547,0,0,1,14.2,7.652Z" transform="translate(-3.814)" fill="#001777"/>
  <path id="Path_452" data-name="Path 452" d="M11.457,15.915a1.457,1.457,0,1,1,1.457-1.457A1.459,1.459,0,0,1,11.457,15.915Zm0-1.822a.364.364,0,1,0,.364.364A.365.365,0,0,0,11.457,14.093Z" transform="translate(-4.899 -3.526)" fill="#001777"/>
  <path id="Path_453" data-name="Path 453" d="M11.8,18.847a.547.547,0,0,1-.547-.547v-2a.547.547,0,1,1,1.093,0v2A.547.547,0,0,1,11.8,18.847Z" transform="translate(-5.238 -4.272)" fill="#001777"/>
</svg>
