<svg xmlns="http://www.w3.org/2000/svg" width="502.085" height="355.079" viewBox="0 0 502.085 355.079">
  <g id="Sign_in_vector_" data-name="Sign in vector " transform="translate(-98 -228)">
    <g id="Group_1245" data-name="Group 1245" transform="translate(98 228)">
      <g id="Group_1139" data-name="Group 1139">
        <path id="Path_407" data-name="Path 407" d="M257.469,149.294A14.772,14.772,0,1,1,242.7,134.522,14.773,14.773,0,0,1,257.469,149.294Z" transform="translate(244.616 -31.573)" fill="#4576fe"/>
        <path id="Path_408" data-name="Path 408" d="M37.108,202.048A14.771,14.771,0,1,1,51.88,216.819,14.771,14.771,0,0,1,37.108,202.048Z" transform="translate(-37.108 46.313)" fill="#4576fe"/>
        <path id="Path_409" data-name="Path 409" d="M450.054,189.339H368.417a14.77,14.77,0,0,1-14.772-14.772h0A14.771,14.771,0,0,1,368.417,159.8h44.236a14.771,14.771,0,1,0,0-29.541H363.6A172.07,172.07,0,0,0,98.038,319.979H70.694a14.772,14.772,0,1,0,0,29.543h85.919a14.77,14.77,0,1,1,0,29.541H115.707a14.772,14.772,0,0,0,0,29.544h45.724A172.07,172.07,0,0,0,426.991,218.883h23.063a14.772,14.772,0,1,0,0-29.543Z" transform="translate(-9.331 -86.39)" fill="#deebf3" opacity="0.2"/>
        <g id="Group_1121" data-name="Group 1121" transform="translate(440.359 253.566)">
          <path id="Path_410" data-name="Path 410" d="M223.129,211.742a8.2,8.2,0,1,1,8.2-8.2A8.211,8.211,0,0,1,223.129,211.742Zm0-14.527a6.326,6.326,0,1,0,6.325,6.327A6.333,6.333,0,0,0,223.129,197.215Z" transform="translate(-214.93 -195.343)" fill="#ffd153"/>
        </g>
        <g id="Group_1122" data-name="Group 1122" transform="translate(232.406 325.305)">
          <path id="Path_411" data-name="Path 411" d="M139.155,240.711a8.2,8.2,0,1,1,8.2-8.2A8.208,8.208,0,0,1,139.155,240.711Zm0-14.524a6.325,6.325,0,1,0,6.325,6.325A6.333,6.333,0,0,0,139.155,226.187Z" transform="translate(-130.956 -224.312)" fill="#fff"/>
        </g>
        <g id="Group_1123" data-name="Group 1123" transform="translate(167.826)">
          <path id="Path_412" data-name="Path 412" d="M115.881,103.953h-11v-11h11Zm-9.128-1.875h7.253V94.825h-7.253Z" transform="translate(-104.878 -92.95)" fill="#a7b4c2"/>
        </g>
        <g id="Group_1124" data-name="Group 1124" transform="translate(415.855 144.132)">
          <path id="Path_413" data-name="Path 413" d="M216.035,162.155h-11v-11h11Zm-9.128-1.875h7.256v-7.253h-7.256Z" transform="translate(-205.035 -151.152)" fill="#a7b4c2"/>
        </g>
        <g id="Group_1125" data-name="Group 1125" transform="translate(62.348 177.541)">
          <path id="Path_414" data-name="Path 414" d="M73.288,175.643h-11v-11h11Zm-9.128-1.875h7.253v-7.251H64.16Z" transform="translate(-62.285 -164.643)" fill="#dedede"/>
        </g>
        <path id="Path_415" data-name="Path 415" d="M74.7,123.417v-6.552H71.06v6.552H64.506v3.637H71.06v6.553H74.7v-6.553h6.552v-3.637Z" transform="translate(3.343 -57.642)" fill="#ffd153"/>
        <path id="Path_416" data-name="Path 416" d="M166.214,225.447v-6.552h-3.637v6.552h-6.553v3.637h6.553v6.553h3.637v-6.553h6.552v-3.637Z" transform="translate(138.459 92.996)" fill="#fff"/>
        <path id="Path_417" data-name="Path 417" d="M226.242,100.24a1.253,1.253,0,0,0-1.761-.171l-3.747,3.093-4.542-3.749-4.542,3.749-4.539-3.749-4.539,3.749-4.539-3.749-4.539,3.749-4.537-3.749-4.537,3.749-3.744-3.093A1.251,1.251,0,0,0,179.084,102h0l5.337,4.406,4.537-3.749,4.537,3.749,4.539-3.749,4.537,3.749,4.542-3.749,4.542,3.749,4.539-3.749,4.542,3.747,5.339-4.4A1.25,1.25,0,0,0,226.242,100.24Z" transform="translate(171.837 -83.408)" fill="#ffd153"/>
        <path id="Path_418" data-name="Path 418" d="M181.879,107.219a1.252,1.252,0,0,0-1.761-.168l-3.747,3.093-4.544-3.749-4.539,3.749-4.542-3.749-4.539,3.747-4.537-3.747-4.539,3.747-4.539-3.747-4.537,3.747-3.744-3.091a1.249,1.249,0,1,0-1.59,1.927h0l5.337,4.406,4.534-3.747,4.539,3.747,4.539-3.747,4.537,3.747,4.539-3.749,4.542,3.749,4.542-3.749,4.542,3.749,5.337-4.406A1.249,1.249,0,0,0,181.879,107.219Z" transform="translate(106.337 -73.101)" fill="#fff"/>
        <path id="Path_419" data-name="Path 419" d="M114.421,220.278a1.249,1.249,0,0,0-1.758-.168l-3.747,3.093-4.544-3.749L99.833,223.2l-4.542-3.749L90.752,223.2l-4.539-3.749L81.676,223.2l-4.539-3.749L72.6,223.2l-3.744-3.093a1.249,1.249,0,1,0-1.59,1.927h0l5.334,4.405,4.537-3.747,4.539,3.747,4.537-3.747,4.539,3.747,4.539-3.749,4.542,3.749,4.539-3.749,4.544,3.749,5.337-4.405A1.247,1.247,0,0,0,114.421,220.278Z" transform="translate(6.747 93.819)" fill="#ffd153"/>
      </g>
      <path id="Path_11" data-name="Path 11" d="M110.457,26H30.091A3.091,3.091,0,0,0,27,29.091V53.819a3.091,3.091,0,0,0,3.091,3.091h80.366a3.091,3.091,0,0,0,3.091-3.091V29.091A3.091,3.091,0,0,0,110.457,26ZM48.637,44.546H36.273a3.091,3.091,0,1,1,0-6.182H48.637a3.091,3.091,0,1,1,0,6.182Zm55.638,0H61a3.091,3.091,0,0,1,0-6.182h43.274a3.091,3.091,0,1,1,0,6.182Z" transform="translate(208.935 132.441)" fill="#ffd153"/>
    </g>
    <g id="Group_1248" data-name="Group 1248" transform="translate(253.569 309.166)">
      <path id="Path_10" data-name="Path 10" d="M147.822,17H27.273A9.273,9.273,0,0,0,18,26.273v123.64a9.273,9.273,0,0,0,9.273,9.273H147.822a9.273,9.273,0,0,0,9.273-9.273V26.273A9.273,9.273,0,0,0,147.822,17Zm-9.273,114.367a9.273,9.273,0,0,1-9.273,9.273H45.819a9.273,9.273,0,0,1-9.273-9.273V106.639a9.273,9.273,0,0,1,9.273-9.273h83.457a9.273,9.273,0,0,1,9.273,9.273Zm0-58.729a9.273,9.273,0,0,1-9.273,9.273H48.91a9.273,9.273,0,0,1-9.273-9.273V47.91a9.273,9.273,0,0,1,9.273-9.273h80.366a9.273,9.273,0,0,1,9.273,9.273Z" transform="translate(34.547 32.456)" fill="#65b7ff"/>
      <path id="Path_12" data-name="Path 12" d="M112.548,45H29.091A3.091,3.091,0,0,0,26,48.091V72.819a3.091,3.091,0,0,0,3.091,3.091h83.457a3.091,3.091,0,0,0,3.091-3.091V48.091A3.091,3.091,0,0,0,112.548,45ZM41.455,63.546H38.364a3.091,3.091,0,1,1,0-6.182h3.091a3.091,3.091,0,1,1,0,6.182Zm15.455,0H53.819a3.091,3.091,0,1,1,0-6.182H56.91a3.091,3.091,0,1,1,0,6.182Zm17,0H70.82a3.091,3.091,0,1,1,0-6.182h3.091a3.091,3.091,0,1,1,0,6.182Zm17,0H87.82a3.091,3.091,0,1,1,0-6.182h3.091a3.091,3.091,0,0,1,0,6.182Zm15.455,0h-3.091a3.091,3.091,0,1,1,0-6.182h3.091a3.091,3.091,0,1,1,0,6.182Z" transform="translate(51.275 91.004)" fill="#ffd153"/>
      <g id="Group_6" data-name="Group 6">
        <path id="Path_13" data-name="Path 13" d="M10.273,137h136a9.273,9.273,0,0,0,9.273-9.273V10.273A9.273,9.273,0,0,0,146.277,1h-136A9.273,9.273,0,0,0,1,10.273V127.731A9.273,9.273,0,0,0,10.273,137Zm136-6.182h-136a3.091,3.091,0,0,1-3.091-3.091v-102H149.368v102A3.091,3.091,0,0,1,146.277,130.822Zm-136-123.64h136a3.091,3.091,0,0,1,3.091,3.091v9.273H7.182V10.273A3.091,3.091,0,0,1,10.273,7.182Z" transform="translate(-1 -1)" fill="#fff"/>
        <path id="Path_14" data-name="Path 14" d="M77.547,16H34.273A9.273,9.273,0,0,0,25,25.273v6.182a9.273,9.273,0,0,0,9.273,9.273H77.547a9.273,9.273,0,0,0,9.273-9.273V25.273A9.273,9.273,0,0,0,77.547,16Zm3.091,15.455a3.091,3.091,0,0,1-3.091,3.091H34.273a3.091,3.091,0,0,1-3.091-3.091V25.273a3.091,3.091,0,0,1,3.091-3.091H77.547a3.091,3.091,0,0,1,3.091,3.091Z" transform="translate(49.184 30.365)" fill="#fff"/>
        <path id="Path_15" data-name="Path 15" d="M77.547,28H34.273A9.273,9.273,0,0,0,25,37.273v6.182a9.273,9.273,0,0,0,9.273,9.273H77.547a9.273,9.273,0,0,0,9.273-9.273V37.273A9.273,9.273,0,0,0,77.547,28Zm3.091,15.455a3.091,3.091,0,0,1-3.091,3.091H34.273a3.091,3.091,0,0,1-3.091-3.091V37.273a3.091,3.091,0,0,1,3.091-3.091H77.547a3.091,3.091,0,0,1,3.091,3.091Z" transform="translate(49.184 55.457)" fill="#fff"/>
        <path id="Path_16" data-name="Path 16" d="M41.078,47.287a18.546,18.546,0,1,0-24.883,0A15.455,15.455,0,0,0,7,61.392V79.938a9.273,9.273,0,0,0,9.273,9.273H41a9.273,9.273,0,0,0,9.273-9.273V61.392a15.455,15.455,0,0,0-9.2-14.1ZM28.637,21.208A12.364,12.364,0,1,1,16.273,33.572,12.364,12.364,0,0,1,28.637,21.208ZM44.092,79.938A3.091,3.091,0,0,1,41,83.029H16.273a3.091,3.091,0,0,1-3.091-3.091V61.392a9.273,9.273,0,0,1,9.273-9.273H34.819a9.273,9.273,0,0,1,9.273,9.273Z" transform="translate(11.546 28.248)" fill="#fff"/>
      </g>
    </g>
  </g>
</svg>
