<?xml version="1.0" encoding="UTF-8"?>
<svg id="Layer_2" data-name="Layer 2" xmlns="http://www.w3.org/2000/svg" viewBox="0 0 1746.95 1169.55">
  <defs>
    <style>
      .cls-1 {
        fill: #fff;
      }
    </style>
  </defs>
  <g id="Layer_2-2" data-name="Layer 2">
    <g id="Capa_2" data-name="Capa 2">
      <g>
        <path class="cls-1" d="M1635.3,0H379.94c-61.56,0-111.64,50.08-111.64,111.64v177.51c0,13.78,11.17,24.95,24.95,24.95H1697.06v743.8c0,34.05-27.7,61.76-61.76,61.76H379.94c-34.05,0-61.75-27.7-61.75-61.76,0-6.73-2.7-12.82-7.04-17.31,11.53,1.16,23.22,1.77,35.05,1.77,155.56,0,292.16-104.04,333.6-253.52l1.55-2.41h84.64v76.03c0,13.78,11.17,24.94,24.95,24.94h116.37c13.77,0,24.94-11.17,24.94-24.94v-76.03h30.44v76.03c0,13.78,11.17,24.94,24.95,24.94h79.96v38.98c0,13.78,11.17,24.95,24.95,24.95s24.94-11.17,24.94-24.95V495.84c0-13.78-11.17-24.95-24.94-24.95s-24.95,11.17-24.95,24.95v66.93h-401.86c-53.47-128.01-179.7-212.84-319.52-212.84-18.01,0-35.69,1.39-52.96,4.05C127.4,379.56,0,523.25,0,696.15s121.3,309.51,281.24,340.01c-7.68,4.25-12.95,12.34-12.95,21.74,0,61.56,50.08,111.65,111.64,111.65H1635.3c61.56,0,111.65-50.09,111.65-111.65V111.64c0-61.56-50.09-111.64-111.65-111.64ZM49.89,696.15c0-163.39,132.93-296.32,296.31-296.32,124.75,0,236.86,78.89,278.97,196.32,3.55,9.92,12.95,16.53,23.48,16.53h418.93v224.85h-55.02v-76.03c0-13.78-11.17-24.95-24.95-24.95h-80.33c-13.77,0-24.95,11.17-24.95,24.95v76.03h-66.48v-76.03c0-13.78-11.17-24.95-24.95-24.95h-123.21c-8.49,0-16.4,4.32-20.99,11.46l-10.99,17.11c-1.4,2.19-2.46,4.58-3.13,7.09-34.35,129.68-152.13,220.25-286.41,220.25-163.39,0-296.31-132.93-296.31-296.32h.03ZM318.19,264.21V111.64c0-34.05,27.7-61.75,61.75-61.75H1635.3c34.05,0,61.76,27.7,61.76,61.75v152.56H318.19Z"/>
        <path class="cls-1" d="M1142.25,112.93c-27.45,0-49.71,22.27-49.71,49.71s22.26,49.71,49.71,49.71,49.72-22.26,49.72-49.71-22.27-49.71-49.72-49.71h0Z"/>
        <path class="cls-1" d="M1364.06,112.93c-27.46,0-49.71,22.27-49.71,49.71s22.26,49.71,49.71,49.71,49.72-22.26,49.72-49.71-22.26-49.71-49.72-49.71h0Z"/>
        <circle class="cls-1" cx="1557.84" cy="162.71" r="49.71" transform="translate(4.28 362.2) rotate(-13.28)"/>
        <path class="cls-1" d="M207.64,626.03c-38.73,0-70.12,31.39-70.12,70.12s31.39,70.12,70.12,70.12,70.13-31.4,70.13-70.12-31.4-70.12-70.13-70.12h0Z"/>
        <path class="cls-1" d="M1191.97,609.71h270.6c13.77,0,24.94-11.17,24.94-24.95s-11.17-24.95-24.94-24.95h-270.6c-13.78,0-24.95,11.17-24.95,24.95s11.17,24.95,24.95,24.95Z"/>
        <path class="cls-1" d="M1185.35,736.06h385.55c13.78,0,24.95-11.17,24.95-24.95s-11.17-24.95-24.95-24.95h-385.55c-13.78,0-24.95,11.17-24.95,24.95s11.17,24.95,24.95,24.95h0Z"/>
        <path class="cls-1" d="M1185.35,852.05h385.55c13.78,0,24.95-11.17,24.95-24.95s-11.17-24.95-24.95-24.95h-385.55c-13.78,0-24.95,11.17-24.95,24.95s11.17,24.95,24.95,24.95h0Z"/>
      </g>
    </g>
  </g>
</svg>