<?xml version="1.0" encoding="UTF-8"?>
<svg id="Layer_2" data-name="Layer 2" xmlns="http://www.w3.org/2000/svg" viewBox="0 0 435.07 435.17">
  <defs>
    <style>
      .cls-1 {
        fill: #fff;
      }
    </style>
  </defs>
  <g id="Layer_1-2" data-name="Layer 1">
    <g>
      <path class="cls-1" d="M217.49,0c119.92-.03,217.59,97.51,217.58,217.27-.01,120.36-97.64,217.93-218.02,217.9C96.94,435.14-.1,337.33,0,216.39,.1,97.38,97.95,.02,217.49,0ZM31.08,217.5c-.06,102.35,83.38,186.49,185.03,186.59,104.06,.1,187.88-82.94,187.89-186.15,.01-103.22-83.5-186.76-186.77-186.85-102.47-.09-186.09,83.65-186.15,186.41Z"/>
      <g>
        <path class="cls-1" d="M272.6,217.49c-20.04-20.03-39.75-39.72-59.46-59.41-5.48-5.48-10.99-10.92-16.42-16.45-5.28-5.37-5.45-12.89-.5-17.69,4.85-4.7,12.21-4.46,17.42,.74,27.94,27.9,55.87,55.82,83.76,83.77,5.67,5.68,5.7,12.56,.07,18.21-27.89,27.95-55.81,55.87-83.75,83.77-5.34,5.33-12.88,5.52-17.69,.62-4.83-4.92-4.5-12.3,.89-17.69,24.19-24.23,48.41-48.43,72.61-72.65,.96-.96,1.87-1.95,3.08-3.21Z"/>
        <path class="cls-1" d="M213.42,217.49c-16.26-16.24-32.18-32.14-48.09-48.05-9.46-9.46-18.98-18.86-28.35-28.41-4.62-4.71-4.73-11.56-.62-16.32,3.87-4.49,10.72-5.45,15.65-2.13,1.03,.69,1.94,1.58,2.82,2.46,27.68,27.67,55.36,55.33,83.01,83.02,6.22,6.23,6.25,12.83,.07,19.02-27.65,27.69-55.33,55.37-83.01,83.03-5.61,5.6-13,5.98-17.96,1.01-4.97-4.97-4.58-12.36,1.02-17.96,24.12-24.15,48.26-48.28,72.39-72.43,.95-.96,1.87-1.95,3.08-3.22Z"/>
      </g>
    </g>
  </g>
</svg>