<?xml version="1.0" encoding="UTF-8"?>
<svg id="Layer_2" data-name="Layer 2" xmlns="http://www.w3.org/2000/svg" viewBox="0 0 380.98 384.19">
  <defs>
    <style>
      .cls-1 {
        fill: #fff;
      }
    </style>
  </defs>
  <g id="Layer_2-2" data-name="Layer 2">
    <g id="Layer_1-2" data-name="Layer 1-2">
      <g>
        <path class="cls-1" d="M.17,267.68C.17,237.02,.56,206.35,0,175.71c-.27-14.52,11.05-24.03,24.04-23.85,38.49,.55,76.99,.18,115.48,.2,15.06,0,23.62,8.35,23.63,23.48,.07,61.82,.06,123.63,0,185.45-.02,14.64-8.83,23.2-23.46,23.2-38.83,0-77.66,.01-116.49,0-14.39,0-22.97-8.54-23-23.03-.06-31.16-.02-62.32-.02-93.48Zm42.77-105.73H25.27c-11.77,0-15.54,3.77-15.54,15.51,0,60.84,.02,121.68,.03,182.51,0,10.04,4.19,14.27,14.22,14.27,38.34,.01,76.68,0,115.02,0,10.51,0,14.35-3.9,14.35-14.54V226.69c0-17.33,.04-34.67-.02-52-.02-6.8-3.52-12.02-9.18-12.4-7.75-.52-15.56-.13-23.61-.13-.09,1.97-.19,3.6-.24,5.23-.33,11.67-7.59,18.86-19.3,18.92-13.17,.06-26.34,.07-39.51-.03-10.61-.08-17.81-6.98-18.54-17.61-.14-1.98-.02-3.98-.02-6.71h0Zm10.21,.2c-1.33,11.27,1.28,14.27,11.84,14.26,11.48,0,22.96,0,34.45-.03,9.49-.03,12.83-4.67,10.24-14.23H53.15Z"/>
        <path class="cls-1" d="M30.31,137.9h-9.83v-5.51c0-36.17-.02-72.34,0-108.52C20.48,8.69,29.09,.16,44.38,.16,148.58,.15,252.77,.28,356.97,0c13.05-.04,24.14,9.01,24,23.87-.43,46.34-.15,92.68-.16,139.02,0,1.62-.15,3.24-.25,5.12h-9.36v-29.85c0-38.01,.04-76.01,0-114.02,0-9.85-4.24-14.03-13.94-14.03H43.67c-9.26,0-13.36,4.09-13.36,13.42-.03,36.01,0,72.01,0,108.02v6.35h0Z"/>
        <path class="cls-1" d="M200.76,32.09h88.52c15.62,0,24.15,8.51,24.17,24.05,.02,15.5,.02,31,0,46.5-.01,14.18-8.85,23.3-22.94,23.31-59.68,.06-119.35,.06-179.03,.02-14.63-.01-23.26-8.73-23.31-23.36-.05-15.67-.06-31.33,0-47,.06-15.09,8.51-23.51,23.57-23.52,29.67-.03,59.34,0,89.02,0h0Zm0,9.95c-29.68,0-59.35-.02-89.03,0-9.76,0-13.67,3.81-13.74,13.6-.12,15.67-.12,31.34-.07,47.01,.03,9.25,4.25,13.41,13.55,13.41,59.52,.02,119.04,.02,178.55,0,9.25,0,13.46-4.25,13.48-13.41,.02-15.5,.01-31.01,0-46.51,0-10.3-3.84-14.11-14.23-14.11-29.51,0-59.02,0-88.53,0h.02Z"/>
        <path class="cls-1" d="M371.22,215.78H178.09v-9.58c1.81-.09,3.43-.24,5.06-.24h188.55c8.68,0,9.09,.43,9.1,9,.01,8.67,.07,17.34,0,26-.12,13.48-8.8,22.2-22.21,22.22-34.51,.05-69.02,.02-103.52,.02h-6.41v47.2h11.66v9.49h-82.21v-9.22h59.81v-47.33h-59.23c-.51-.94-.78-1.21-.8-1.5-.37-5.61,2.25-8.42,7.86-8.43h170.54c10.87,0,14.93-4.1,14.93-15.12v-22.52h0Z"/>
        <path class="cls-1" d="M183.4,171.67c2.01-2.64,3.81-4.99,5.9-7.72,3.56,2.65,6.97,5.18,10.59,7.87,6.06-7.62,11.93-14.99,17.98-22.59,2.57,2.05,4.97,3.97,7.64,6.1-6.9,8.73-13.54,17.18-20.24,25.58-2.57,3.21-5.6,3.17-8.72,.81-4.23-3.2-8.43-6.44-13.15-10.05h0Z"/>
        <path class="cls-1" d="M371.5,190.9v-10.59h8.93v10.59h-8.93Z"/>
        <path class="cls-1" d="M27.72,289.23c.7-2.71,.93-5.08,1.89-7.1,7.28-15.47,8.29-30.99,.8-46.69-1.58-3.32-.65-5.8,2.45-7.56,6.22-3.53,12.37-7.2,18.73-10.47,1.72-.88,4.39-1.3,6.09-.6,15.94,6.54,31.73,6.8,47.69,.06,1.69-.72,4.38-.41,6.08,.46,6.37,3.24,12.54,6.88,18.75,10.43,3.27,1.87,4.06,4.39,2.4,7.98-7.19,15.54-6.09,30.85,.9,46.27,3.81,8.41,.66,16.79-2.76,24.53-8.18,18.51-23.4,27.42-42.87,29.91-22.62,2.9-48.54-9.16-56.5-32.53-1.64-4.83-2.49-9.93-3.65-14.69Zm94.44-54.36c-12.77-8.87-13-9.54-26.59-4.97-10.07,3.38-19.5,3.56-28.98-.63-7.78-3.44-14.42-2.28-21.27,2.63-3.12,2.24-4.18,3.69-2.93,7.41,4.64,13.8,4.3,27.8-1.53,40.98-4.34,9.81-2.22,18.24,2.56,26.51,9.66,16.74,33.07,24.27,53.16,17.67,11.3-3.71,20.53-10.05,24.95-21.31,2.09-5.33,4.48-12.42,2.62-17.07-6.83-17.03-8.56-33.72-1.98-51.22h-.01Z"/>
        <path class="cls-1" d="M155.46,70.69c-3.89,2.79-7.48,5.38-11.54,8.3,4,2.92,7.58,5.52,11.51,8.39-1.86,2.62-3.63,5.11-5.51,7.77-3.15-2.05-6.01-3.91-9.64-6.28v11.23h-9.8v-11.57c-3.84,2.54-6.77,4.49-10.08,6.68-1.84-2.57-3.54-4.97-5.56-7.79,3.74-2.71,7.32-5.3,11.47-8.31-3.91-2.92-7.52-5.61-11.37-8.49,1.91-2.74,3.58-5.14,5.4-7.75,3.25,2.13,6.12,4.02,9.83,6.46v-11.47h9.94v11.54c3.65-2.45,6.48-4.35,9.75-6.55,1.9,2.67,3.67,5.16,5.6,7.86v-.02Z"/>
        <path class="cls-1" d="M195.59,100.05v-11.21c-3.61,2.36-6.47,4.22-9.71,6.34-1.78-2.53-3.48-4.93-5.48-7.77,3.72-2.72,7.39-5.39,11.55-8.44-4.01-2.86-7.6-5.42-11.58-8.26,1.87-2.69,3.62-5.2,5.49-7.88,3.23,2.1,6.1,3.97,9.67,6.29v-11.26h9.81v11.66c3.81-2.52,6.77-4.49,10.09-6.69,1.81,2.55,3.5,4.94,5.52,7.77-3.78,2.77-7.34,5.38-11.48,8.4,3.92,2.84,7.59,5.51,11.5,8.34-1.94,2.77-3.63,5.17-5.49,7.82-3.24-2.13-6.2-4.08-9.83-6.47v11.34h-10.05v.02Z"/>
        <path class="cls-1" d="M245.93,70.63c2-2.85,3.61-5.14,5.44-7.76,3.2,2.07,6.18,4,9.88,6.39v-11.39h9.72v11.52c3.82-2.49,6.77-4.42,10.05-6.56,1.82,2.61,3.51,5.03,5.45,7.81-3.76,2.74-7.34,5.34-11.45,8.33,3.97,2.92,7.65,5.62,11.47,8.44-1.89,2.67-3.6,5.08-5.49,7.75-3.06-2.01-5.92-3.9-9.55-6.29-.2,4.06-.37,7.55-.56,11.27h-9.25v-11.63c-3.88,2.54-6.81,4.45-10.13,6.61-1.78-2.42-3.52-4.79-5.69-7.74,3.84-2.75,7.53-5.38,11.64-8.32-4.02-2.94-7.58-5.55-11.55-8.45l.02,.02Z"/>
        <path class="cls-1" d="M59.4,280.74c1.98-2.64,3.76-5.01,5.82-7.74,3.59,2.67,7,5.21,10.64,7.91,6.06-7.62,11.85-14.89,17.92-22.53,2.56,1.95,4.99,3.8,7.78,5.92-6.97,8.81-13.55,17.53-20.69,25.77-1.3,1.5-5.58,2.22-7.28,1.23-4.97-2.89-9.34-6.83-14.18-10.54v-.02Z"/>
      </g>
    </g>
  </g>
</svg>